# xmcd
#
# Track frame offsets:
#	150
#	22063
#	32303
#	46737
#	59798
#	74734
#	86862
#	96742
#	111471
#	121733
#	130995
#	142318
#	154154
#	165447
#	177100
#	187665
#
# Disc length: 2703 seconds
# Revision: 0
# Processed by: cddbd v1.5.2PL0 Copyright (c) Steve Scherf et al.
# Submitted via: dBpowerAMP V12.0
#
DISCID=e90a8d10
DTITLE=Various Artist - 32 Country Gospel Favorites [Disc 2]
DYEAR=2005
DGENRE=Gospel and Religious
TTITLE0=Nitty Gritty Dirt Band - Will The Circle Be Unbroken
TTITLE1=Haggard, Merle - Jesus, Take A Hold
TTITLE2=Greenwood, Lee - God Bless The U.S.A
TTITLE3=Daniels, Charlie - I Saw The Light
TTITLE4=Gatlin, Larry (& The Gatlin Brothers) - The Prodigal Son
TTITLE5=Jones, George - Peace In The Valley
TTITLE6=Oak Ridge Boys, The - Lord I Need You (Again Today)
TTITLE7=Lane, Christy - One Day At A Time
TTITLE8=Campbell, Glen - Daddy Sang Bass
TTITLE9=Jones, George - Kneel At The Foot Of Jesus
TTITLE10=Oak Ridge Boys, The - I Will Live For Jesus
TTITLE11=Haggard, Merle - Guide Me, Lord [Live]
TTITLE12=Jones, George - Homecoming To Heaven
TTITLE13=Campbell, Glen - He's Got The Whole World
TTITLE14=Jones, George - Wait A Little Longer, Please Jesus
TTITLE15=Haggard, Merle - Just A Closer Walk With Thee
EXTD=
EXTT0=
EXTT1=
EXTT2=
EXTT3=
EXTT4=
EXTT5=
EXTT6=
EXTT7=
EXTT8=
EXTT9=
EXTT10=
EXTT11=
EXTT12=
EXTT13=
EXTT14=
EXTT15=
PLAYORDER=
